<svg width="62" height="62" viewBox="0 0 62 62" fill="none" xmlns="http://www.w3.org/2000/svg">
    <path d="M20.15 35.65V24.8M20.538 46.5a5.038 5.038 0 1 0 0-10.075 5.038 5.038 0 0 0 0 10.075zM20.15 24.8a4.65 4.65 0 1 0 0-9.3 4.65 4.65 0 0 0 0 9.3zM41.85 24.8a4.65 4.65 0 1 0 0-9.3 4.65 4.65 0 0 0 0 9.3zM20.357 35.65c.697-2.712 3.177-4.727 6.096-4.702l5.322.026c4.056.026 7.517-2.583 8.783-6.226" stroke="#F5F5F5" stroke-width="3" stroke-linecap="round" stroke-linejoin="round"/>
    <path d="M23.25 5.167h15.5c12.917 0 18.083 5.166 18.083 18.083v15.5c0 12.917-5.166 18.083-18.083 18.083h-15.5c-12.917 0-18.083-5.166-18.083-18.083v-15.5c0-12.917 5.166-18.083 18.083-18.083z" stroke="#F5F5F5" stroke-width="3" stroke-linecap="round" stroke-linejoin="round"/>
</svg>
