<svg width="20" height="20" viewBox="0 0 20 20" fill="none" xmlns="http://www.w3.org/2000/svg">
    <path d="M17.708 7.625C15.783 4.6 12.967 2.858 10 2.858c-1.483 0-2.925.434-4.242 1.242-1.316.817-2.5 2.008-3.466 3.525-.834 1.308-.834 3.433 0 4.742C4.217 15.4 7.033 17.133 10 17.133c1.483 0 2.925-.433 4.242-1.241 1.316-.817 2.5-2.009 3.466-3.525.834-1.3.834-3.434 0-4.742zM10 13.367A3.363 3.363 0 0 1 6.633 10c0-1.858 1.5-3.367 3.367-3.367A3.363 3.363 0 0 1 13.367 10c0 1.858-1.5 3.367-3.367 3.367z" fill="#fff"/>
    <path d="M10 7.617a2.38 2.38 0 0 0 0 4.758A2.386 2.386 0 0 0 12.383 10 2.394 2.394 0 0 0 10 7.617z" fill="#fff"/>
</svg>
