<svg width="54" height="54" viewBox="0 0 54 54" fill="none" xmlns="http://www.w3.org/2000/svg">
    <path d="M23.895 15.773v20.204l-7.02-2.024M37.125 15.75l-7.088 1.012V27.9l7.088-1.012v7.087L29.025 36" stroke="#fff" stroke-width="3" stroke-miterlimit="10" stroke-linecap="round" stroke-linejoin="round"/>
    <path d="m7.47 11.047-.45-4.05C6.863 5.67 7.92 4.5 9.248 4.5H44.73c1.35 0 2.385 1.17 2.228 2.497l-4.05 36.495a2.24 2.24 0 0 1-1.62 1.913l-13.68 3.915a2.311 2.311 0 0 1-1.238 0l-13.68-3.915a2.271 2.271 0 0 1-1.62-1.913l-2.475-22.32" stroke="#fff" stroke-width="3" stroke-miterlimit="10" stroke-linecap="round" stroke-linejoin="round"/>
</svg>
