<svg width="70" height="70" viewBox="0 0 70 70" fill="none" xmlns="http://www.w3.org/2000/svg">
    <path d="M31.083 55.758v7.75a1.925 1.925 0 0 1-1.916 1.917 1.925 1.925 0 0 1-1.917-1.917v-7.75h3.833zM42.75 55.758v7.75a1.925 1.925 0 0 1-1.917 1.917 1.925 1.925 0 0 1-1.916-1.917v-7.75h3.833zM48.583 32.083v14.584c0 2.656-2.177 4.833-4.833 4.833h-17.5c-2.656 0-4.833-2.177-4.833-4.833V32.083c0-2.656 2.177-4.833 4.833-4.833h17.5c2.656 0 4.833 2.177 4.833 4.833zM13.583 32.083V43.75a1.925 1.925 0 0 1-1.916 1.917A1.925 1.925 0 0 1 9.75 43.75V32.083c0-1.052.865-1.916 1.917-1.916s1.916.864 1.916 1.916zM60.25 32.083V43.75a1.925 1.925 0 0 1-1.917 1.917 1.925 1.925 0 0 1-1.916-1.917V32.083c0-1.052.864-1.916 1.916-1.916s1.917.864 1.917 1.916zM45.667 17.5A3.68 3.68 0 0 1 42 21.167H28a3.68 3.68 0 0 1-3.667-3.667c0-5.893 4.774-10.667 10.667-10.667 5.894 0 10.667 4.774 10.667 10.667z" stroke="#fff" stroke-width="2"/>
</svg>
