<svg
  width="57"
  height="57"
  viewBox="0 0 57 57"
  fill="none"
  xmlns="http://www.w3.org/2000/svg"
>
  <path
    d="M21.375 30.875a10.015 10.015 0 0 0-3.848 3.396 2.441 2.441 0 0 0 0 2.708 10.016 10.016 0 0 0 3.848 3.396M36.124 30.875a10.015 10.015 0 0 1 3.847 3.396 2.441 2.441 0 0 1 0 2.708 10.016 10.016 0 0 1-3.847 3.396"
    stroke="#fff"
    stroke-width="3"
    stroke-linecap="round"
    stroke-linejoin="round"
  />
  <path
    d="M4.75 30.875v4.75C4.75 47.5 9.5 52.25 21.375 52.25h14.25c11.875 0 16.625-4.75 16.625-16.625v-14.25C52.25 9.5 47.5 4.75 35.625 4.75h-14.25C9.5 4.75 4.75 9.5 4.75 21.375M5.296 19.024 50.944 19"
    stroke="#fff"
    stroke-width="3"
    stroke-linecap="round"
    stroke-linejoin="round"
  />
</svg>
