<svg width="32" height="32" viewBox="0 0 32 32" fill="none" xmlns="http://www.w3.org/2000/svg">
    <path d="M29.333 21.587c0 4.853-2.893 7.746-7.746 7.746H20c-.733 0-1.333-.6-1.333-1.333v-7.693c0-.36.293-.667.653-.667l2.347-.04a.425.425 0 0 0 .386-.333l.467-2.547a.403.403 0 0 0-.4-.467l-2.84.04a.678.678 0 0 1-.68-.653l-.053-3.267c0-.213.173-.4.4-.4l3.2-.053c.226 0 .4-.173.4-.4l-.054-3.2c0-.227-.173-.4-.4-.4l-3.6.053a3.995 3.995 0 0 0-3.933 4.067l.067 3.667a.66.66 0 0 1-.654.68l-1.6.026c-.226 0-.4.174-.4.4l.04 2.534c0 .226.174.4.4.4l1.6-.027c.374 0 .667.293.68.653l.12 7.6a1.335 1.335 0 0 1-1.333 1.36h-3.067c-4.853 0-7.746-2.893-7.746-7.76v-11.16c0-4.853 2.893-7.746 7.746-7.746h11.174c4.853 0 7.746 2.893 7.746 7.746v11.174z" fill="#7562E0"/>
</svg>
