<svg width="56" height="56" viewBox="0 0 56 56" fill="none" xmlns="http://www.w3.org/2000/svg">
    <path d="M43.097 51.583h-9.334c-2.556 0-4.312-.698-5.431-1.818-1.12-1.12-1.819-2.876-1.819-5.432V11.667c0-2.556.699-4.312 1.818-5.432 1.12-1.12 2.876-1.818 5.432-1.818h9.334c2.556 0 4.312.698 5.431 1.818 1.12 1.12 1.819 2.876 1.819 5.432v32.666c0 2.553-.703 4.31-1.826 5.431-1.124 1.122-2.881 1.82-5.424 1.82zM33.763 4.917c-2.012 0-3.806.42-5.068 1.681-1.261 1.262-1.682 3.056-1.682 5.069v32.666c0 2.013.42 3.807 1.682 5.069 1.261 1.26 3.056 1.681 5.068 1.681h9.334c2.012 0 3.806-.42 5.068-1.681 1.261-1.262 1.682-3.056 1.682-5.069V11.667c0-2.013-.42-3.807-1.682-5.069-1.261-1.26-3.056-1.681-5.068-1.681h-9.334z" stroke="#fff" stroke-width="3"/>
    <path d="M38.43 14.25H26.763a.246.246 0 0 1-.173-.077.245.245 0 0 1-.077-.173c0-.056.023-.119.077-.173a.246.246 0 0 1 .173-.077H38.43c.056 0 .119.023.173.077a.245.245 0 0 1 .077.173.245.245 0 0 1-.077.173.245.245 0 0 1-.173.077zM36.097 42.25h-9.334a.246.246 0 0 1-.173-.077.245.245 0 0 1-.077-.173c0-.056.023-.119.077-.173a.246.246 0 0 1 .173-.077h9.334c.056 0 .118.023.173.077a.245.245 0 0 1 .077.173.245.245 0 0 1-.077.173.246.246 0 0 1-.173.077zM26.755 32.8h-.015a.233.233 0 0 1-.227-.238v-.035c0-.102.096-.227.25-.227H26.78l11.658.117h.015c.122 0 .23.107.227.237l1.5.036-1.5-.036a.259.259 0 0 1-.246.263L26.755 32.8zM33.763 23.583h-7a.246.246 0 0 1-.173-.076.246.246 0 0 1-.077-.174c0-.056.023-.118.077-.173a.246.246 0 0 1 .173-.077h7c.057 0 .12.023.173.077a.245.245 0 0 1 .077.173.245.245 0 0 1-.077.174.245.245 0 0 1-.173.076zM8.588 48.646l-1.912-3.171v-.001c-.563-.938-1.023-2.584-1.023-3.66V11.55c0-3.932 3.202-7.133 7.134-7.133 3.931 0 7.133 3.201 7.133 7.133v30.24c0 1.076-.46 2.722-1.022 3.66v.002l-1.913 3.17-.007.013-.008.013c-1.133 1.969-2.702 2.865-4.16 2.865-1.46 0-3.037-.899-4.222-2.867zM7.11 45.191l.005.01 1.91 3.167.002.003c.825 1.383 2.13 2.619 3.783 2.619 1.663 0 2.967-1.276 3.778-2.61l.003-.006 1.914-3.173.005-.01c.284-.478.508-1.1.658-1.652.151-.55.275-1.197.275-1.749V11.55c0-3.652-2.981-6.633-6.633-6.633S6.177 7.898 6.177 11.55v30.24c0 .552.124 1.199.275 1.75.15.55.374 1.173.658 1.651z" stroke="#fff" stroke-width="3"/>
    <path d="M19.693 16.583H5.903a.245.245 0 0 1-.173-.076.246.246 0 0 1-.077-.174c0-.056.023-.118.077-.173a.245.245 0 0 1 .173-.077h13.79c.057 0 .12.023.173.077a.245.245 0 0 1 .077.173.246.246 0 0 1-.077.174.245.245 0 0 1-.173.076z" stroke="#fff" stroke-width="3"/>
</svg>
